<?xml version="1.0" encoding="UTF-8"?>
<svg id="Layer_2" data-name="Layer 2" xmlns="http://www.w3.org/2000/svg" viewBox="0 0 512 486.98">
  <defs>
    <style>
      .cls-1 {
        fill: #ffbdbc;
      }

      .cls-2 {
        fill: #020288;
      }
    </style>
  </defs>
  <g id="Capa_1" data-name="Capa 1">
    <g>
      <path class="cls-1" d="M409.54,134.28v-16.17l-27.57-56.26-19.91-5.7-26.04,10.72-32.17-16.85V23.98l-13.25-18.38h-63.35l-20.94,18.38v26.72l-26.55,18.04-12.6-6.47s-17.02-14.3-32.88-8.96c-15.86,5.34-41.1,64.79-41.1,64.79l7.68,12.34,29.11,19.15-3.06,33.86-19.91,18.99-8.43,17.62,32.94,59.74,17.62,3.06,29.11-10.72,32.94,18.27-.77,26.92,11.02,10.72,15.78,3.83h48.26l14.55-13.02,6.89-28.45,30.64-15.21,22.98,8.43,18.38-3.06,30.64-47.49v-22.98l-24.51-17.62,2.3-42.13,22.21-16.08Zm-153.54,102.9c-36.99,0-66.98-29.99-66.98-66.98s29.99-66.98,66.98-66.98,66.98,29.99,66.98,66.98-29.99,66.98-66.98,66.98Z"/>
      <g>
        <path class="cls-2" d="M507.16,416.67c-4.2-6.51-10.6-11.05-17.9-12.91V138.38c0-24.55-19.97-44.52-44.51-44.52h-36.29l-16.29-28.21c-4.32-7.47-11.28-12.81-19.6-15.04-8.33-2.23-17.03-1.09-24.49,3.23l-11.57,6.67c-8.02-5.89-16.65-10.88-25.77-14.9v-13.33c0-17.8-14.48-32.28-32.27-32.28h-44.92c-17.8,0-32.28,14.48-32.28,32.28v13.33c-9.1,4.01-17.73,9-25.76,14.9l-11.55-6.67c-8.03-4.64-17.67-5.6-26.47-2.65-3.93,1.32-6.04,5.57-4.72,9.5,1.32,3.93,5.58,6.04,9.5,4.72,4.71-1.59,9.88-1.07,14.18,1.42l15.88,9.17c2.67,1.54,6,1.29,8.41-.62,9.35-7.42,19.7-13.41,30.78-17.8,2.86-1.13,4.74-3.9,4.74-6.97v-18.32c0-9.53,7.75-17.28,17.28-17.28h44.92c9.52,0,17.27,7.75,17.27,17.28v18.32c0,3.08,1.88,5.84,4.74,6.97,11.1,4.4,21.46,10.39,30.79,17.8,2.41,1.92,5.75,2.16,8.41,.63l15.91-9.17c3.99-2.31,8.65-2.92,13.1-1.73,4.46,1.2,8.19,4.06,10.5,8.05l22.45,38.88c2.31,4,2.92,8.66,1.73,13.12-1.2,4.46-4.06,8.18-8.07,10.49l-15.86,9.18c-2.66,1.54-4.11,4.55-3.66,7.59,.86,5.82,1.3,11.8,1.3,17.77s-.44,11.96-1.3,17.81c-.45,3.04,1.01,6.05,3.67,7.59l15.86,9.15c8.26,4.77,11.1,15.36,6.34,23.61l-22.45,38.88c-4.77,8.25-15.36,11.1-23.61,6.33l-15.9-9.17c-2.67-1.54-6-1.29-8.41,.63-9.34,7.42-19.69,13.4-30.78,17.79-2.86,1.13-4.74,3.9-4.74,6.98v18.33c0,9.53-7.75,17.28-17.27,17.28h-44.92c-9.53,0-17.28-7.75-17.28-17.28v-18.33c0-3.08-1.88-5.84-4.74-6.97-11.07-4.38-21.42-10.37-30.78-17.79-2.41-1.91-5.75-2.16-8.41-.62l-15.88,9.17c-4.01,2.31-8.67,2.92-13.14,1.72-4.45-1.2-8.17-4.05-10.47-8.06l-22.47-38.87c-4.76-8.25-1.92-18.85,6.32-23.61l15.88-9.15c2.68-1.54,4.13-4.56,3.67-7.62-.87-5.8-1.32-11.78-1.32-17.78s.44-11.97,1.32-17.75c.46-3.05-.99-6.07-3.66-7.61l-15.89-9.18c-8.24-4.76-11.08-15.35-6.33-23.6l13.71-23.73c2.07-3.59,.85-8.17-2.74-10.25-3.59-2.07-8.17-.85-10.25,2.74l-7.54,13.06h-36.29c-24.54,0-44.51,19.97-44.51,44.52V403.76c-7.3,1.86-13.7,6.4-17.9,12.91-5.59,8.67-6.39,19.45-2.14,28.84l5.89,13.02c7.83,17.28,25.14,28.45,44.1,28.45H459.3c18.97,0,36.28-11.17,44.1-28.45l5.89-13.02c4.25-9.39,3.46-20.17-2.14-28.84Zm-11.53,22.66l-5.89,13.02c-5.4,11.93-17.35,19.63-30.44,19.63H52.7c-13.09,0-25.04-7.71-30.44-19.63l-5.89-13.02c-2.17-4.8-1.78-10.1,1.08-14.52,2.86-4.43,7.52-6.97,12.79-6.97H95.06c4.14,0,7.5-3.36,7.5-7.5s-3.36-7.5-7.5-7.5H37.74V138.38c0-16.28,13.24-29.52,29.51-29.52h28.04c-1.92,4.87-2.56,10.01-2.06,15h-16.32c-13.33,0-24.18,10.85-24.18,24.18v212.23c0,15.2,12.36,27.56,27.56,27.56H431.7c15.2,0,27.56-12.36,27.56-27.56v-103.67c0-4.14-3.36-7.5-7.5-7.5s-7.5,3.36-7.5,7.5v103.67c0,6.93-5.63,12.56-12.56,12.56H80.3c-6.93,0-12.56-5.63-12.56-12.56V148.04c0-5.06,4.12-9.18,9.18-9.18h21.74c2.64,3.9,6.18,7.27,10.52,9.77l11.55,6.68c-.54,4.9-.82,9.88-.82,14.88s.27,9.99,.82,14.9l-11.55,6.66c-15.4,8.9-20.7,28.68-11.81,44.1l22.46,38.87c4.29,7.47,11.24,12.81,19.56,15.05,8.34,2.25,17.05,1.1,24.54-3.21l11.55-6.67c8.03,5.9,16.66,10.89,25.76,14.89v13.34c0,17.8,14.48,32.28,32.28,32.28h44.92c17.79,0,32.27-14.48,32.27-32.28v-13.34c9.11-4.01,17.75-9,25.77-14.89l11.57,6.67c15.41,8.9,35.19,3.59,44.1-11.83l22.45-38.88c8.9-15.41,3.59-35.19-11.83-44.1l-11.54-6.66c.54-4.93,.81-9.92,.81-14.9s-.27-9.96-.81-14.88l11.53-6.68c4.28-2.47,7.86-5.81,10.56-9.78h21.73c5.06,0,9.18,4.12,9.18,9.18v73.95c0,4.14,3.36,7.5,7.5,7.5s7.5-3.36,7.5-7.5v-73.95c0-13.33-10.85-24.18-24.18-24.18h-16.29c.52-5.1-.19-10.22-2.08-15h28.04c16.27,0,29.51,13.24,29.51,29.52V402.83H130.05c-4.14,0-7.5,3.36-7.5,7.5s3.36,7.5,7.5,7.5h43.98v5.52c0,13.82,11.25,25.07,25.07,25.07h113.82c13.82,0,25.07-11.25,25.07-25.07v-5.52h143.78c5.27,0,9.94,2.54,12.79,6.97,2.86,4.43,3.25,9.72,1.07,14.53h0Zm-306.6-21.5h133.96v5.52c0,5.55-4.52,10.07-10.07,10.07h-113.82c-5.55,0-10.07-4.52-10.07-10.07v-5.52Z"/>
        <path class="cls-2" d="M328.84,170.19c0-40.16-32.67-72.84-72.84-72.84s-72.86,32.67-72.86,72.84,32.68,72.86,72.86,72.86,72.84-32.68,72.84-72.86Zm-38.25-46.33h-69.18c9.66-7.22,21.63-11.5,34.59-11.5s24.93,4.28,34.58,11.5Zm-92.44,46.33c0-11.54,3.41-22.3,9.26-31.33h97.17c5.85,9.04,9.26,19.79,9.26,31.33,0,31.9-25.95,57.86-57.84,57.86s-57.85-25.95-57.85-57.86h0Z"/>
      </g>
    </g>
  </g>
</svg>