<?xml version="1.0" encoding="UTF-8"?>
<svg id="Layer_2" data-name="Layer 2" xmlns="http://www.w3.org/2000/svg" viewBox="0 0 512 512">
  <defs>
    <style>
      .cls-1 {
        fill: #e2c4ff;
      }

      .cls-2 {
        fill: #020288;
      }
    </style>
  </defs>
  <g id="Capa_1" data-name="Capa 1">
    <g>
      <circle class="cls-1" cx="234.01" cy="275.36" r="38.48"/>
      <polygon class="cls-1" points="396.07 58.19 399.64 112.04 447.64 116.13 502.28 61.86 459.39 51.79 453.81 5.83 396.07 58.19"/>
      <path class="cls-2" d="M445.66,123.82c4.8,0,9.42-1.9,12.83-5.32l50.27-50.27c6.72-6.72,2.34-18.25-7.12-18.84l-26.75-1.68,17.45-17.45c2.93-2.93,2.93-7.68,0-10.61-2.93-2.93-7.68-2.93-10.61,0l-17.45,17.46-1.68-26.75c-.6-9.48-12.13-13.82-18.84-7.12l-50.27,50.27c-3.68,3.68-5.6,8.77-5.28,13.97l1.73,27.53c-41.95-35.77-96.02-56.29-153.3-56.29C105.85,38.72,0,144.56,0,275.36c0,59.03,21.86,115.57,61.56,159.2,2.79,3.06,7.53,3.29,10.6,.5,3.06-2.79,3.29-7.53,.5-10.6-37.18-40.86-57.65-93.82-57.65-149.11,0-122.21,99.43-221.64,221.64-221.64,57.27,0,111.16,21.95,151.48,59.56l-34.22,34.22c-30.95-28.41-72.16-45.79-117.25-45.79-95.75,0-173.65,77.9-173.65,173.65,0,27.56,6.65,55.01,19.23,79.38,0,0,0,0,0,0,29.15,56.48,87.85,94.27,154.43,94.27,82.03,0,153.37-57.94,170.05-138.35,.84-4.06-1.77-8.03-5.82-8.87-4.05-.84-8.02,1.77-8.87,5.82-15.19,73.24-80.52,126.39-155.36,126.39-59.61,0-113.68-33.01-141.1-86.15,0,0,0,0,0,0-11.65-22.58-17.56-46.97-17.56-72.5,0-87.48,71.17-158.65,158.65-158.65,40.97,0,78.43,15.7,106.65,41.4l-33.92,33.92c-19.46-17.01-44.91-27.33-72.73-27.33-61.02,0-110.67,49.65-110.67,110.67s49.64,110.67,110.67,110.67,110.67-49.64,110.67-110.67c0-27.82-10.32-53.27-27.33-72.73l33.92-33.92c25.5,27.99,41.16,65.09,41.39,105.73,.02,4.13,3.38,7.46,7.5,7.46h.04c4.14-.02,7.48-3.4,7.46-7.54-.26-44.74-17.6-85.55-45.79-116.25l34.22-34.22c37.45,40.04,59.55,93.61,59.55,151.48,0,122.22-99.43,221.64-221.64,221.64-50.63,0-100.13-17.51-139.4-49.32-3.22-2.61-7.94-2.11-10.55,1.11-2.61,3.22-2.11,7.94,1.11,10.55,41.93,33.96,94.79,52.66,148.84,52.66,130.79,0,236.64-105.84,236.64-236.64,0-51.21-16.09-99.95-46.54-140.95-3.15-4.24-6.43-8.36-9.83-12.36,29.4,1.85,27.82,1.77,28.75,1.77h0Zm-113.35,151.54c0,52.75-42.92,95.67-95.67,95.67s-95.67-42.92-95.67-95.67,42.92-95.67,95.67-95.67c23.68,0,45.38,8.65,62.1,22.96l-34.13,34.13c-7.86-5.72-17.53-9.1-27.97-9.1-26.29,0-47.68,21.39-47.68,47.68s21.39,47.68,47.68,47.68,47.68-21.39,47.68-47.68c0-10.45-3.39-20.11-9.1-27.97l34.13-34.13c14.3,16.72,22.96,38.42,22.96,62.1Zm-100.97,5.3c2.93,2.93,7.68,2.93,10.61,0l22.48-22.48c3.1,4.99,4.9,10.88,4.9,17.18,0,18.02-14.66,32.68-32.68,32.68s-32.68-14.66-32.68-32.68,14.66-32.68,32.68-32.68c6.3,0,12.18,1.8,17.18,4.9l-22.48,22.48c-2.93,2.93-2.93,7.68,0,10.61h0ZM403.19,66.54c-.06-.9,.28-1.78,.92-2.42l44.08-44.08,1.96,31.22-45.08,45.08-1.87-29.8Zm12.48,40.41l45.08-45.08,31.22,1.96-44.08,44.08c-.64,.64-1.53,.98-2.42,.92l-29.8-1.87Z"/>
    </g>
  </g>
</svg>