<?xml version="1.0" encoding="UTF-8"?>
<svg id="Layer_2" data-name="Layer 2" xmlns="http://www.w3.org/2000/svg" viewBox="0 0 447.79 496">
  <defs>
    <style>
      .cls-1 {
        fill: #020288;
        fill-rule: evenodd;
      }

      .cls-2 {
        fill: #fff69b;
      }
    </style>
  </defs>
  <g id="Capa_1" data-name="Capa 1">
    <g>
      <path class="cls-1" d="M148.05,398.03H41.2c-22.66,0-41.2-18.55-41.2-41.2V128.48c0-22.66,18.55-41.2,41.2-41.2H177.45c4.41,0,8,3.58,8,8s-3.59,8-8,8H41.2c-13.86,0-25.2,11.35-25.2,25.2v228.35c0,13.86,11.35,25.2,25.2,25.2H406.58c13.86,0,25.2-11.35,25.2-25.2V128.48c0-13.86-11.35-25.2-25.2-25.2h-45.59c-4.42,0-8-3.58-8-8s3.58-8,8-8h45.59c22.66,0,41.2,18.55,41.2,41.2v228.35c0,22.66-18.55,41.2-41.2,41.2h-106.82v36.75h42.52c20.4,0,36.31,14.31,36.31,30.59v22.62c0,4.42-3.58,8-8,8H77.22c-4.42,0-8-3.58-8-8v-22.62c0-16.29,15.91-30.59,36.31-30.59h42.52v-36.75Zm135.71,0h-119.71v36.75h119.71v-36.75Zm-198.54,81.97H362.6v-14.62c0-8.58-9.57-14.59-20.31-14.59H105.53c-10.75,0-20.31,6.02-20.31,14.59v14.62Zm261.8-222.58h10.51c4.42,0,8,3.58,8,8s-3.58,8-8,8H72.39c-4.42,0-8-3.58-8-8s3.58-8,8-8h10.51v-64.46c0-4.42,3.58-8,8-8h37.8c4.42,0,8,3.58,8,8v64.46h16.36v-102.4c0-4.42,3.58-8,8-8h37.75c4.42,0,8,3.58,8,8v102.4h16.36V115.37c0-4.42,3.58-8,8-8h37.75c4.42,0,8,3.58,8,8v142.06h16.36V79.72c0-4.42,3.58-8,8-8h37.75c4.42,0,8,3.58,8,8v177.7Zm-248.12,0h21.8v-56.46h-21.8v56.46Zm70.16,0h21.75v-94.4h-21.75v94.4Zm70.11,0h21.75V123.37h-21.75v134.06Zm70.11,0h21.75V87.72h-21.75v169.7Zm18.64-228.67c-76.34,66.41-159.57,108.6-238.35,136.03-4.17,1.45-8.73-.76-10.19-4.93-1.45-4.17,.75-8.73,4.93-10.18,76.82-26.74,157.99-67.81,232.47-132.43l-7.52,.41c-4.41,.24-8.18-3.14-8.43-7.55-.24-4.41,3.14-8.19,7.55-8.43L338.58,.01c2.4-.13,4.73,.82,6.34,2.59,1.62,1.77,2.36,4.18,2.01,6.55l-4.36,29.96c-.64,4.37-4.7,7.4-9.07,6.76-4.37-.63-7.4-4.7-6.77-9.07,0,0,.55-3.77,1.17-8.06ZM43.75,131.06v195.06H404.03V131.06h-43.46c-4.42,0-8-3.59-8-8s3.58-8,8-8h46.86c6.9,0,12.6,5.62,12.6,12.6v206.46c0,4.42-3.58,8-8,8H35.75c-4.42,0-8-3.58-8-8V127.66c0-6.97,5.66-12.6,12.63-12.6H118.83c4.42,0,8,3.58,8,8s-3.58,8-8,8H43.75Z"/>
      <path class="cls-2" d="M89.67,184.66h38.64c4.63,0,8.39,3.76,8.39,8.39v64.37h-55.41v-64.37c0-4.63,3.76-8.39,8.39-8.39Z"/>
      <path class="cls-2" d="M160.61,147.02h38.64c4.63,0,8.39,3.76,8.39,8.39v102.01h-55.41v-102.01c0-4.63,3.76-8.39,8.39-8.39Z"/>
      <path class="cls-2" d="M231.55,107.37h38.64c4.63,0,8.39,3.76,8.39,8.39v141.67h-55.41V115.75c0-4.63,3.76-8.39,8.39-8.39Z"/>
      <path class="cls-2" d="M300.83,71.72h38.64c4.63,0,8.39,3.76,8.39,8.39v177.31h-55.41V80.11c0-4.63,3.76-8.39,8.39-8.39Z"/>
    </g>
  </g>
</svg>